<svg xmlns="http://www.w3.org/2000/svg" xmlns:xlink="http://www.w3.org/1999/xlink" id="Layer_1" x="0px" y="0px" viewBox="0 0 493 143" style="enable-background:new 0 0 493 143;" xml:space="preserve"><style type="text/css">	.st0{fill-rule:evenodd;clip-rule:evenodd;fill:#FFFFFF;}	.st1{fill-rule:evenodd;clip-rule:evenodd;fill:#46B175;}	.st2{fill-rule:evenodd;clip-rule:evenodd;fill:#91CA68;}	.st3{fill-rule:evenodd;clip-rule:evenodd;fill:#33BA97;}	.st4{fill:#A2C53A;}</style><path class="st0" d="M152.8,24.8l84.5-0.1c30.4,0,55.3,24.9,55.3,55.3c0,30.4-24.9,55.3-55.3,55.3l-84.5,0.1 c-30.5,0-55.3-24.8-55.3-55.3S122.2,24.8,152.8,24.8"></path><path class="st1" d="M318.8,83.2L289.1,113c-0.8,0.8-1.2,1.8-1.2,2.9v15.6c0,2.3,1.8,4.1,4.1,4.1h15.6c1.1,0,2.1-0.4,2.9-1.2 l29.8-29.8c1.6-1.6,4.2-1.6,5.8,0l29.8,29.8c0.8,0.8,1.8,1.2,2.9,1.2h15.6c2.3,0,4.1-1.8,4.1-4.1v-15.6c0-1.1-0.4-2.1-1.2-2.9 l-29.8-29.8c-1.6-1.6-1.6-4.2,0-5.8l29.8-29.8c0.8-0.8,1.2-1.8,1.2-2.9V29.1c0-2.3-1.8-4.1-4.1-4.1h-15.6c-1.1,0-2.1,0.4-2.9,1.2 L346.1,56c-1.6,1.6-4.2,1.6-5.8,0l-29.8-29.8c-0.8-0.8-1.8-1.2-2.9-1.2H292c-2.3,0-4.1,1.8-4.1,4.1v15.6c0,1.1,0.4,2.1,1.2,2.9 l29.8,29.8C320.4,79,320.4,81.6,318.8,83.2"></path><path class="st2" d="M26.2,31.8c-1.2-1.2-1.5-2.9-0.9-4.5c0.7-1.6,2.1-2.5,3.8-2.5h92.2h31.5c-0.2,0-0.4,0-0.6,0l-0.2,0 c-0.4,0-0.9,0-1.3,0l-0.2,0c-0.2,0-0.4,0-0.6,0l-0.2,0l-0.5,0l-0.1,0c-0.2,0-0.4,0-0.6,0l-0.2,0l-0.6,0l-0.1,0c-0.2,0-0.4,0-0.6,0.1 l-0.1,0l-0.5,0.1l-0.1,0c-0.2,0-0.4,0-0.6,0.1l-0.2,0c-0.4,0.1-0.8,0.1-1.3,0.2l-0.1,0c-0.2,0-0.4,0.1-0.6,0.1l-0.1,0l0,0 c-0.2,0-0.4,0.1-0.6,0.1l-0.1,0c-0.2,0-0.4,0.1-0.6,0.1l0,0c-0.2,0-0.4,0.1-0.6,0.1l-0.1,0c-0.2,0-0.4,0.1-0.6,0.1l0,0l0,0 c-0.2,0-0.4,0.1-0.6,0.1l-0.1,0c-0.4,0.1-0.8,0.2-1.2,0.3l-0.1,0c-0.2,0-0.4,0.1-0.6,0.1l-0.1,0l-0.5,0.1l-0.1,0l-0.6,0.2l-0.1,0 l-0.5,0.1l-0.1,0c-0.2,0.1-0.4,0.1-0.5,0.2l-0.2,0.1l-0.5,0.2l-0.1,0c-0.2,0.1-0.4,0.1-0.6,0.2l-0.1,0l-0.6,0.2l0,0 c-0.2,0.1-0.4,0.1-0.6,0.2l-0.1,0c-0.2,0.1-0.4,0.1-0.6,0.2l0,0l0,0c-0.2,0.1-0.4,0.2-0.6,0.2l-0.1,0l-0.6,0.2l0,0 c-0.2,0.1-0.4,0.2-0.6,0.2l-0.1,0c-0.2,0.1-0.4,0.2-0.5,0.2l0,0l0,0c-0.2,0.1-0.4,0.2-0.5,0.2l-0.1,0c-0.2,0.1-0.4,0.2-0.5,0.3l0,0 l-0.5,0.3l-0.1,0c-0.2,0.1-0.4,0.2-0.5,0.3l-0.1,0l-0.5,0.2l-0.1,0.1l-0.5,0.3l-0.2,0.1l-0.4,0.2l-0.1,0l-0.4,0.2v0 c-4.3,2.5-8.2,5.5-11.7,8.9c-10,10-16.2,23.8-16.2,39.1c0,15.3,6.2,29.1,16.2,39.1c-0.2-0.2-0.3-0.3-0.5-0.5l0,0L26.2,31.8z"></path><path class="st1" d="M13.6,36.2l92.2,92.2c1.2,1.2,1.5,2.9,0.9,4.5c-0.7,1.6-2.1,2.5-3.8,2.5H10.7c-2.3,0-4.1-1.8-4.1-4.1V39.1 c0-1.7,1-3.2,2.5-3.8C10.7,34.6,12.4,35,13.6,36.2"></path><path class="st3" d="M174.2,58.7L188.9,44c0.8-0.8,1.3-1.9,1.2-3.1c0-1.2-0.5-2.2-1.4-3c-9.7-8.2-22.2-13.2-35.8-13.2 c-15.3,0-29.1,6.2-39.1,16.2c-10,10-16.2,23.8-16.2,39.1c0,30.5,24.8,55.3,55.3,55.3c15.3,0,29.1-6.2,39.1-16.2c9-9,15-21.2,16-34.7 c0.1-1.2-0.3-2.2-1.1-3.1c-0.8-0.9-1.8-1.3-3-1.3h-24.6h-16.4c-1.7,0-3.2,1-3.8,2.5c-0.7,1.6-0.3,3.3,0.9,4.5l8.4,8.4 c0.9,0.9,1.3,2,1.2,3.3c-0.1,1.3-0.7,2.3-1.8,3c-4.2,2.9-9.4,4.6-14.9,4.6c-14.6,0-26.4-11.8-26.4-26.4c0-7.3,3-13.9,7.7-18.7 c4.8-4.8,11.4-7.7,18.7-7.7c6,0,11.5,2,16,5.4C170.4,60.4,172.7,60.2,174.2,58.7"></path><path class="st4" d="M424,36l6.6-6.2c5.1-4.6,7.6-8.3,7.6-13.2c0-6.8-5.3-11.1-13.5-11.1c-7.1,0-12.6,3.9-13.9,9.8l8.4,2.7 c0.8-3.3,2.8-4.9,5.5-4.9c2.7,0,4.4,1.6,4.4,4c0,2.8-2.2,5.7-5.4,8.6l-12.8,11.9v5.9h28V36H424z M447.3,43.9c2.8,0,4.9-2.1,4.9-4.8 c0-2.8-2.1-4.9-4.9-4.9c-2.7,0-4.8,2.1-4.8,4.9C442.4,41.8,444.5,43.9,447.3,43.9z M471.5,44.1c10.2,0,16.9-7.4,16.9-19.4 c0-12.3-6.6-19.2-16.9-19.2c-10.3,0-16.9,7-16.9,19.2C454.6,36.7,461.2,44.1,471.5,44.1z M471.5,35.6c-4.7,0-7.8-3.8-7.8-10.9 c0-7,3.2-10.8,7.8-10.8s7.8,3.8,7.8,10.8C479.3,31.8,476.2,35.6,471.5,35.6"></path></svg>