<svg xmlns="http://www.w3.org/2000/svg" xmlns:xlink="http://www.w3.org/1999/xlink" id="Layer_1" x="0px" y="0px" viewBox="0 0 169 169" style="enable-background:new 0 0 169 169;" xml:space="preserve"><style type="text/css">	.st0{fill-rule:evenodd;clip-rule:evenodd;fill:#45B175;}	.st1{fill-rule:evenodd;clip-rule:evenodd;fill:#A3C516;}	.st2{fill-rule:evenodd;clip-rule:evenodd;fill:#23454F;}</style><g>	<path class="st0" d="M115.5,9.7l4.7,17.6c-7.2,1.9-12.6,8.5-12.6,16.4c0,1.5,0.2,3,0.5,4.4c1.9,7.2,8.5,12.6,16.4,12.6  c1.5,0,3-0.2,4.4-0.5L125.3,46c-0.4-1.3,0.5-2.6,1.7-3l26.4-7.1c1.4-0.4,2.8-0.2,4.1,0.7c1.3,0.8,1.9,2.1,2.1,3.5  c1.7,16.8-9,32.9-25.9,37.4c-18.7,5-38-6.1-43-24.8C85.6,34,96.8,14.7,115.5,9.7"></path>	<path class="st1" d="M157.4,145.4h-23.7l-6.6,13.2c-0.5,0.8-1.3,1.4-2.2,1.4c-1,0-1.8-0.5-2.2-1.4l-6.6-13.2H92  c-1.4,0-2.4-1.1-2.4-2.4l-0.1-49.1c0-1.4,0.5-2.5,1.4-3.4c1-1,2.1-1.4,3.4-1.4h60.5c2.7,0,4.9,2.2,4.9,4.9l0.1,49.2  c0,0.6-0.3,1.3-0.7,1.7C158.5,145.1,158,145.4,157.4,145.4 M113.3,98.8l11.2,11.2l11.2-11.2h7.1v7.1l-11.2,11.2l11.2,11.2v7.1h-7.1  l-11.2-11.2l-11.2,11.2h-7.1v-7.1l11.2-11.2l-11.2-11.2v-7.1H113.3z"></path>	<path class="st2" d="M46.5,154.8H14.1c-2.7,0-4.9-2.2-4.9-4.9V93.8c0-2.7,2.2-4.9,4.9-4.9h32.4c18.1,0,33,14.9,33,33  S64.6,154.8,46.5,154.8"></path>	<path class="st0" d="M32.8,18h41.7c2.7,0,4.9,2.2,4.9,4.9v41.7c0,2-1.2,3.7-3,4.5c-1.9,0.8-3.9,0.4-5.3-1.1L29.3,26.3  c-1.4-1.4-1.8-3.4-1.1-5.3C28.9,19.1,30.8,18,32.8,18"></path>	<path class="st0" d="M55.8,78.8H14.1c-2.7,0-4.9-2.2-4.9-4.9V32.2c0-2,1.2-3.7,3-4.5c1.9-0.8,3.9-0.4,5.3,1.1l41.7,41.7  c1.4,1.4,1.8,3.4,1.1,5.3C59.6,77.7,57.8,78.8,55.8,78.8"></path>	<path class="st1" d="M133.1,12.2L129.6,25c-0.4,1.2,0.3,2.4,1.4,2.9c1.4,0.5,2.7,1.4,4,2.3c1,0.7,2.4,0.6,3.3-0.2l9.3-9.3  c0.5-0.5,0.7-1.1,0.7-1.8c0-0.7-0.3-1.3-0.8-1.8c-3.3-2.8-7.1-5.1-11.3-6.5c-0.6-0.3-1.4-0.2-2,0.2C133.6,11,133.3,11.5,133.1,12.2  "></path></g></svg>