<svg xmlns="http://www.w3.org/2000/svg" xmlns:xlink="http://www.w3.org/1999/xlink" id="Layer_1" x="0px" y="0px" viewBox="0 0 421.2 156.8" style="enable-background:new 0 0 421.2 156.8;" xml:space="preserve"><style type="text/css">	.st0{fill-rule:evenodd;clip-rule:evenodd;fill:#C91685;}	.st1{fill-rule:evenodd;clip-rule:evenodd;fill:#264650;}	.st2{fill-rule:evenodd;clip-rule:evenodd;fill:#6AC4A3;}	.st3{fill-rule:evenodd;clip-rule:evenodd;fill:#FFFFFF;}	.st4{fill:none;stroke:#6AC4A3;stroke-width:1.0476;stroke-miterlimit:10;}	.st5{fill:none;stroke:#C91685;stroke-width:1.0476;stroke-miterlimit:10;}</style><polygon class="st0" points="39.6,115.2 39.6,15.8 10.9,15.8 10.9,143.9 25.8,143.9 39.6,143.9 95.1,143.9 95.1,115.2 "></polygon><path class="st0" d="M107.7,53.3H94.7v24.4V82h13.2v61.9h28.5V82h30.7v27c0,19.3,15.6,34.9,34.9,34.9h9.1v-28.7h-9.1 c-3.4,0-6.2-2.8-6.2-6.2V82h15.3V53.3h-15.3V29.2h-27.2v15.6c0,4.7-3.8,8.4-8.4,8.4h-23.9c0-8.2,6.6-14.8,14.8-14.8V9.8 C127.2,9.8,107.7,29.3,107.7,53.3"></path><path class="st0" d="M264.6,84.3c10.4,0,18.7,8.4,18.7,18.7c0,10.4-8.4,18.7-18.7,18.7c-10.4,0-18.7-8.4-18.7-18.7 C245.9,92.7,254.3,84.3,264.6,84.3z M372.9,86.4v61.9h28.5V86.4h18.2v-4.3V57.6h-18.2c0-8.2,6.6-14.8,14.8-14.8V14.1 c-24,0-43.5,19.5-43.5,43.5h-13.1h-4.9c0-8.2,6.6-14.8,14.8-14.8V14.1c-24,0-43.5,19.5-43.5,43.5h-13.1v24.4v4.3h13.2v61.9h28.5 V86.4h4.9H372.9z M264.6,55.6c-26.2,0-47.5,21.2-47.5,47.5s21.2,47.5,47.5,47.5s47.5-21.2,47.5-47.5S290.9,55.6,264.6,55.6"></path><rect x="53.4" y="53.3" class="st0" width="28.7" height="50.5"></rect><polygon class="st1" points="31.1,115.2 31.1,15.8 2.4,15.8 2.4,143.9 17.2,143.9 31.1,143.9 86.6,143.9 86.6,115.2 "></polygon><path class="st1" d="M99.2,53.3H86.2v24.4V82h13.2v61.9h28.5V82h30.7v27c0,19.3,15.6,34.9,34.9,34.9h9.1v-28.7h-9.1 c-3.4,0-6.2-2.8-6.2-6.2V82h15.3V53.3h-15.3V29.2h-27.2v15.6c0,4.7-3.8,8.4-8.4,8.4h-23.9c0-8.2,6.6-14.8,14.8-14.8V9.8 C118.7,9.8,99.2,29.3,99.2,53.3"></path><path class="st1" d="M256.1,84.3c10.4,0,18.7,8.4,18.7,18.7c0,10.4-8.4,18.7-18.7,18.7c-10.4,0-18.7-8.4-18.7-18.7 C237.4,92.7,245.8,84.3,256.1,84.3z M364.4,86.4v61.9h28.5V86.4h18.2v-4.3V57.6h-18.2c0-8.2,6.6-14.8,14.8-14.8V14.1 c-24,0-43.5,19.5-43.5,43.5h-13.1h-4.9c0-8.2,6.6-14.8,14.8-14.8V14.1c-24,0-43.5,19.5-43.5,43.5h-13.1v24.4v4.3h13.2v61.9h28.5 V86.4h4.9H364.4z M256.1,55.6c-26.2,0-47.5,21.2-47.5,47.5s21.2,47.5,47.5,47.5c26.2,0,47.5-21.2,47.5-47.5S282.3,55.6,256.1,55.6"></path><rect x="44.9" y="53.3" class="st1" width="28.7" height="50.5"></rect><polygon class="st1" points="31.1,116.1 31.1,16.6 2.4,16.6 2.4,144.8 17.2,144.8 31.1,144.8 86.6,144.8 86.6,116.1 "></polygon><path class="st1" d="M99.2,54.1H86.2v24.4v4.3h13.2v61.9h28.5V82.9h30.7v27c0,19.3,15.6,34.9,34.9,34.9h9.1v-28.7h-9.1 c-3.4,0-6.2-2.8-6.2-6.2v-27h15.3V54.1h-15.3V30.1h-27.2v15.6c0,4.7-3.8,8.4-8.4,8.4h-23.9c0-8.2,6.6-14.8,14.8-14.8V10.6 C118.7,10.6,99.2,30.1,99.2,54.1"></path><path class="st1" d="M256.1,85.1c10.4,0,18.7,8.4,18.7,18.7c0,10.4-8.4,18.7-18.7,18.7c-10.4,0-18.7-8.4-18.7-18.7 C237.4,93.5,245.8,85.1,256.1,85.1z M364.4,87.2v61.9h28.5V87.2h18.2v-4.3V58.5h-18.2c0-8.2,6.6-14.8,14.8-14.8V15 c-24,0-43.5,19.5-43.5,43.5h-13.1h-4.9c0-8.2,6.6-14.8,14.8-14.8V15c-24,0-43.5,19.5-43.5,43.5h-13.1v24.4v4.3h13.2v61.9h28.5V87.2 h4.9H364.4z M256.1,56.4c-26.2,0-47.5,21.2-47.5,47.5s21.2,47.5,47.5,47.5c26.2,0,47.5-21.2,47.5-47.5S282.3,56.4,256.1,56.4"></path><rect x="44.9" y="54.1" class="st1" width="28.7" height="50.5"></rect><polygon class="st1" points="31.1,116.9 31.1,17.5 2.4,17.5 2.4,145.6 17.2,145.6 31.1,145.6 86.6,145.6 86.6,116.9 "></polygon><path class="st1" d="M99.2,55H86.2v24.4v4.3h13.2v61.9h28.5V83.7h30.7v27c0,19.3,15.6,34.9,34.9,34.9h9.1v-28.7h-9.1 c-3.4,0-6.2-2.8-6.2-6.2v-27h15.3V55h-15.3V30.9h-27.2v15.6c0,4.7-3.8,8.4-8.4,8.4h-23.9c0-8.2,6.6-14.8,14.8-14.8V11.5 C118.7,11.5,99.2,31,99.2,55"></path><path class="st1" d="M256.1,86c10.4,0,18.7,8.4,18.7,18.7c0,10.4-8.4,18.7-18.7,18.7c-10.4,0-18.7-8.4-18.7-18.7 C237.4,94.4,245.8,86,256.1,86z M364.4,88.1V150h28.5V88.1h18.2v-4.3V59.3h-18.2c0-8.2,6.6-14.8,14.8-14.8V15.8 c-24,0-43.5,19.5-43.5,43.5h-13.1h-4.9c0-8.2,6.6-14.8,14.8-14.8V15.8c-24,0-43.5,19.5-43.5,43.5h-13.1v24.4v4.3h13.2V150h28.5V88.1 h4.9H364.4z M256.1,57.3c-26.2,0-47.5,21.2-47.5,47.5c0,26.2,21.2,47.5,47.5,47.5c26.2,0,47.5-21.2,47.5-47.5 C303.6,78.5,282.3,57.3,256.1,57.3"></path><rect x="44.9" y="55" class="st1" width="28.7" height="50.5"></rect><polygon class="st1" points="31.1,117.8 31.1,18.3 2.4,18.3 2.4,146.5 17.2,146.5 31.1,146.5 86.6,146.5 86.6,117.8 "></polygon><path class="st1" d="M99.2,55.8H86.2v24.4v4.3h13.2v61.9h28.5V84.6h30.7v27c0,19.3,15.6,34.9,34.9,34.9h9.1v-28.7h-9.1 c-3.4,0-6.2-2.8-6.2-6.2v-27h15.3V55.8h-15.3V31.8h-27.2v15.6c0,4.7-3.8,8.4-8.4,8.4h-23.9c0-8.2,6.6-14.8,14.8-14.8V12.3 C118.7,12.3,99.2,31.8,99.2,55.8"></path><path class="st1" d="M256.1,86.8c10.4,0,18.7,8.4,18.7,18.7s-8.4,18.7-18.7,18.7c-10.4,0-18.7-8.4-18.7-18.7S245.8,86.8,256.1,86.8z  M364.4,88.9v61.9h28.5V88.9h18.2v-4.3V60.2h-18.2c0-8.2,6.6-14.8,14.8-14.8V16.7c-24,0-43.5,19.5-43.5,43.5h-13.1h-4.9 c0-8.2,6.6-14.8,14.8-14.8V16.7c-24,0-43.5,19.5-43.5,43.5h-13.1v24.4v4.3h13.2v61.9h28.5V88.9h4.9H364.4z M256.1,58.1 c-26.2,0-47.5,21.2-47.5,47.5s21.2,47.5,47.5,47.5c26.2,0,47.5-21.2,47.5-47.5S282.3,58.1,256.1,58.1"></path><rect x="44.9" y="55.8" class="st1" width="28.7" height="50.5"></rect><polygon class="st1" points="31.1,118.6 31.1,19.2 2.4,19.2 2.4,147.3 17.2,147.3 31.1,147.3 86.6,147.3 86.6,118.6 "></polygon><path class="st1" d="M99.2,56.7H86.2v24.4v4.3h13.2v61.9h28.5V85.4h30.7v27c0,19.3,15.6,34.9,34.9,34.9h9.1v-28.7h-9.1 c-3.4,0-6.2-2.8-6.2-6.2v-27h15.3V56.7h-15.3V32.6h-27.2v15.6c0,4.7-3.8,8.4-8.4,8.4h-23.9c0-8.2,6.6-14.8,14.8-14.8V13.2 C118.7,13.2,99.2,32.7,99.2,56.7"></path><path class="st1" d="M256.1,87.7c10.4,0,18.7,8.4,18.7,18.7c0,10.4-8.4,18.7-18.7,18.7c-10.4,0-18.7-8.4-18.7-18.7 C237.4,96.1,245.8,87.7,256.1,87.7z M364.4,89.8v61.9h28.5V89.8h18.2v-4.3V61h-18.2c0-8.2,6.6-14.8,14.8-14.8V17.5 c-24,0-43.5,19.5-43.5,43.5h-13.1h-4.9c0-8.2,6.6-14.8,14.8-14.8V17.5c-24,0-43.5,19.5-43.5,43.5h-13.1v24.4v4.3h13.2v61.9h28.5 V89.8h4.9H364.4z M256.1,59c-26.2,0-47.5,21.2-47.5,47.5c0,26.2,21.2,47.5,47.5,47.5c26.2,0,47.5-21.2,47.5-47.5 C303.6,80.2,282.3,59,256.1,59"></path><rect x="44.9" y="56.7" class="st1" width="28.7" height="50.5"></rect><polygon class="st1" points="31.1,119.5 31.1,20 2.4,20 2.4,148.2 17.2,148.2 31.1,148.2 86.6,148.2 86.6,119.5 "></polygon><path class="st1" d="M99.2,57.6H86.2V82v4.3h13.2v61.9h28.5V86.3h30.7v27c0,19.3,15.6,34.9,34.9,34.9h9.1v-28.7h-9.1 c-3.4,0-6.2-2.8-6.2-6.2v-27h15.3V57.6h-15.3V33.5h-27.2v15.6c0,4.7-3.8,8.4-8.4,8.4h-23.9c0-8.2,6.6-14.8,14.8-14.8V14 C118.7,14,99.2,33.5,99.2,57.6"></path><path class="st1" d="M256.1,88.5c10.4,0,18.7,8.4,18.7,18.7s-8.4,18.7-18.7,18.7c-10.4,0-18.7-8.4-18.7-18.7S245.8,88.5,256.1,88.5z  M364.4,90.6v61.9h28.5V90.6h18.2v-4.3V61.9h-18.2c0-8.2,6.6-14.8,14.8-14.8V18.4c-24,0-43.5,19.5-43.5,43.5h-13.1h-4.9 c0-8.2,6.6-14.8,14.8-14.8V18.4c-24,0-43.5,19.5-43.5,43.5h-13.1v24.4v4.3h13.2v61.9h28.5V90.6h4.9H364.4z M256.1,59.8 c-26.2,0-47.5,21.2-47.5,47.5c0,26.2,21.2,47.5,47.5,47.5c26.2,0,47.5-21.2,47.5-47.5C303.6,81.1,282.3,59.8,256.1,59.8"></path><rect x="44.9" y="57.6" class="st1" width="28.7" height="50.5"></rect><polygon class="st2" points="79.4,21.5 49.9,38.3 49.9,4.8 "></polygon><polygon class="st3" points="35.3,108.8 35.3,9.4 6.6,9.4 6.6,137.5 21.4,137.5 35.3,137.5 90.8,137.5 90.8,108.8 "></polygon><polygon class="st4" points="35.3,108.8 35.3,9.4 6.6,9.4 6.6,137.5 21.4,137.5 35.3,137.5 90.8,137.5 90.8,108.8 "></polygon><path class="st3" d="M103.4,46.9H90.4v24.4v4.3h13.2v61.9h28.5V75.6h30.7v27c0,19.3,15.6,34.9,34.9,34.9h9.1v-28.7h-9.1 c-3.4,0-6.2-2.8-6.2-6.2v-27h15.3V46.9h-15.3V22.8h-27.2v15.6c0,4.7-3.8,8.4-8.4,8.4h-23.9c0-8.2,6.6-14.8,14.8-14.8V3.4 C122.9,3.4,103.4,22.9,103.4,46.9"></path><path class="st4" d="M103.4,46.9H90.4v24.4v4.3h13.2v61.9h28.5V75.6h30.7v27c0,19.3,15.6,34.9,34.9,34.9h9.1v-28.7h-9.1 c-3.4,0-6.2-2.8-6.2-6.2v-27h15.3V46.9h-15.3V22.8h-27.2v15.6c0,4.7-3.8,8.4-8.4,8.4h-23.9c0-8.2,6.6-14.8,14.8-14.8V3.4 C122.9,3.4,103.4,22.9,103.4,46.9"></path><path class="st3" d="M260.3,77.9c10.4,0,18.7,8.4,18.7,18.7c0,10.4-8.4,18.7-18.7,18.7c-10.4,0-18.7-8.4-18.7-18.7 C241.6,86.3,250,77.9,260.3,77.9z M368.6,80v61.9h28.5V80h18.2v-4.3V51.3h-18.2c0-8.2,6.6-14.8,14.8-14.8V7.8 c-24,0-43.5,19.5-43.5,43.5h-13.1h-4.9c0-8.2,6.6-14.8,14.8-14.8V7.8c-24,0-43.5,19.5-43.5,43.5h-13.1v24.4V80h13.2v61.9h28.5V80 h4.9H368.6z M260.3,49.2c-26.2,0-47.5,21.2-47.5,47.5c0,26.2,21.2,47.5,47.5,47.5c26.2,0,47.5-21.2,47.5-47.5 C307.8,70.5,286.5,49.2,260.3,49.2"></path><path class="st4" d="M260.3,77.9c10.4,0,18.7,8.4,18.7,18.7c0,10.4-8.4,18.7-18.7,18.7c-10.4,0-18.7-8.4-18.7-18.7 C241.6,86.3,250,77.9,260.3,77.9z M368.6,80v61.9h28.5V80h18.2v-4.3V51.3h-18.2c0-8.2,6.6-14.8,14.8-14.8V7.8 c-24,0-43.5,19.5-43.5,43.5h-13.1h-4.9c0-8.2,6.6-14.8,14.8-14.8V7.8c-24,0-43.5,19.5-43.5,43.5h-13.1v24.4V80h13.2v61.9h28.5V80 h4.9H368.6z M260.3,49.2c-26.2,0-47.5,21.2-47.5,47.5c0,26.2,21.2,47.5,47.5,47.5c26.2,0,47.5-21.2,47.5-47.5 C307.8,70.5,286.5,49.2,260.3,49.2"></path><rect x="49.1" y="46.9" class="st3" width="28.7" height="50.5"></rect><rect x="49.1" y="46.9" class="st4" width="28.7" height="50.5"></rect><polygon class="st5" points="31.1,115.6 31.1,16.2 2.3,16.2 2.3,144.4 17.2,144.4 31.1,144.4 86.5,144.4 86.5,115.6 "></polygon><path class="st5" d="M99.2,53.7H86.1v24.4v4.3h13.2v61.9h28.5V82.5h30.7v27c0,19.3,15.6,34.9,34.9,34.9h9.1v-28.7h-9.1 c-3.4,0-6.2-2.8-6.2-6.2v-27h15.3V53.7h-15.3V29.7h-27.2v15.6c0,4.7-3.8,8.4-8.4,8.4h-23.9c0-8.2,6.6-14.8,14.8-14.8V10.2 C118.6,10.2,99.2,29.7,99.2,53.7"></path><path class="st5" d="M256.1,84.7c10.4,0,18.7,8.4,18.7,18.7c0,10.4-8.4,18.7-18.7,18.7c-10.4,0-18.7-8.4-18.7-18.7 C237.3,93.1,245.7,84.7,256.1,84.7z M364.3,86.8v61.9h28.5V86.8h18.2v-4.3V58.1h-18.2c0-8.2,6.6-14.8,14.8-14.8V14.6 c-24,0-43.5,19.5-43.5,43.5h-13.1h-4.9c0-8.2,6.6-14.8,14.8-14.8V14.6c-24,0-43.5,19.5-43.5,43.5h-13.1v24.4v4.3h13.2v61.9h28.5 V86.8h4.9H364.3z M256.1,56c-26.2,0-47.5,21.2-47.5,47.5s21.2,47.5,47.5,47.5c26.2,0,47.5-21.2,47.5-47.5S282.3,56,256.1,56"></path><rect x="44.8" y="53.7" class="st5" width="28.7" height="50.5"></rect></svg>