<svg width="464" height="90" viewBox="0 0 464 90" fill="none" xmlns="http://www.w3.org/2000/svg">
<path fill-rule="evenodd" clip-rule="evenodd" d="M105.382 46.7194H112.501C117.434 46.7194 120.994 50.6045 120.994 55.4621C120.994 60.3494 117.464 64.2048 112.501 64.2048H105.382V46.7194ZM166.58 46.3449C169.629 46.3449 172.593 47.759 174.248 50.3664L170.452 52.5398C169.652 51.2813 168.066 50.7158 166.63 50.7158C163.827 50.7158 161.909 52.7328 161.909 55.512C161.909 58.4956 163.969 60.3331 166.904 60.3331C168.937 60.3331 170.277 59.567 170.926 58.0349H166.679V54.1881H175.496V55.9622C175.496 61.1193 171.968 64.5792 166.829 64.5792C161.535 64.5792 157.462 60.8582 157.462 55.487C157.462 50.3145 161.398 46.3449 166.579 46.3449H166.58ZM155.389 46.7194V64.2048H150.919V46.7194H155.389ZM147.471 55.2873C150.059 56.9894 149.816 61.2681 147.471 63.1305C145.079 65.0313 140.64 65.0256 138.092 63.43C136.868 62.664 136.007 61.5984 135.507 60.2333L139.328 58.0099C140.603 61.0502 144.823 60.8515 144.823 59.159C144.823 58.6598 144.432 58.2432 143.649 57.91C143.383 57.8102 142.65 57.5856 141.452 57.2361C139.754 56.7532 138.463 56.0784 137.58 55.2134C135.568 53.2387 135.917 49.6387 137.981 47.8445C140.216 45.9552 143.767 45.8832 146.224 47.3827C147.357 48.0739 148.222 49.0608 148.822 50.3424L145.075 52.5408C144.447 51.0566 142.524 49.8969 141.153 50.9049C140.457 51.4176 140.662 52.272 141.341 52.7165C141.749 52.9833 142.544 53.2905 143.726 53.6409C144.608 53.9078 145.291 54.1401 145.774 54.3398C146.323 54.5731 146.889 54.889 147.472 55.2893L147.471 55.2873ZM191.659 46.7194V64.2048H188.212L182.042 55.4121V64.2048H177.571V46.7194H181.043L187.213 55.512V46.7194H191.659ZM123.067 46.7194H134.183V50.8906H127.539V53.4009H134.183V57.5222H127.539V60.0077H134.308V64.2038H123.067V46.7184V46.7194ZM116.623 55.4621C116.623 52.9613 115.096 51.0413 112.501 51.0413H109.978V59.8838H112.501C115.107 59.8838 116.623 57.9724 116.623 55.4621Z" fill="#23454F"/>
<path fill-rule="evenodd" clip-rule="evenodd" d="M181.219 22.825H185.69V40.3104H181.219V22.825ZM179.596 22.825V27.146H175.274V40.3104H170.803V27.146H166.481V22.825H179.596ZM161.811 22.825L167.581 40.3104H150.595L156.366 22.825H161.811ZM138.48 22.825H149.596V26.9962H142.951V29.5066H149.596V33.6279H142.951V36.1133H149.72V40.3095H138.48V22.824V22.825ZM136.281 28.8692C136.281 30.9629 135.126 32.8157 133.309 33.84L136.906 40.3095H132.11L129.063 34.6637H127.465V40.3095H122.994V22.824H129.988C133.481 22.824 136.282 25.2999 136.282 28.8682L136.281 28.8692ZM117.522 34.2893L121.394 36.5376C119.812 39.1863 116.936 40.6838 113.825 40.6838C108.537 40.6838 104.708 36.8506 104.708 31.5667C104.708 26.3088 108.561 22.4496 113.825 22.4496C116.912 22.4496 119.813 23.9856 121.394 26.5959L117.522 28.8192C116.808 27.4983 115.347 26.8215 113.825 26.8215C111.018 26.8215 109.154 28.7396 109.154 31.5677C109.154 34.4343 110.984 36.3139 113.825 36.3139C115.356 36.3139 116.813 35.6381 117.522 34.2912V34.2893ZM216.164 22.824V26.9952H209.52V29.5056H216.164V33.6269H209.52V36.1123H216.289V40.3085H205.048V22.8231H216.164V22.824ZM203.674 22.824L198.029 40.3095H192.708L187.063 22.824H191.959L195.357 34.8634L198.779 22.824H203.675H203.674ZM131.81 28.9191C131.81 27.7805 131.071 26.9453 129.936 26.9453H127.463V30.8669H129.936C131.098 30.8842 131.81 30.048 131.81 28.9181V28.9191ZM158.799 28.6032L155.867 37.5043C155.83 37.6186 155.861 37.7367 155.948 37.8183C156.036 37.8999 156.156 37.9219 156.267 37.8759L158.961 36.7661C159.038 36.7344 159.114 36.7344 159.191 36.7661L161.906 37.8941C162.016 37.9402 162.137 37.9191 162.225 37.8375C162.313 37.7559 162.343 37.6378 162.306 37.5235L159.369 28.6042C159.328 28.4794 159.216 28.3978 159.084 28.3978C158.953 28.3978 158.84 28.4784 158.799 28.6042V28.6032Z" fill="#23454F"/>
<path fill-rule="evenodd" clip-rule="evenodd" d="M131.086 70.2384C136.219 70.2384 140.253 74.208 140.253 79.3555C140.253 84.5193 136.234 88.4726 131.086 88.4726C125.9 88.4726 121.919 84.5558 121.919 79.3555C121.919 74.1821 125.928 70.2384 131.086 70.2384ZM117.522 82.078L121.394 84.3264C119.796 87 116.908 88.4726 113.825 88.4726C108.536 88.4726 104.708 84.6441 104.708 79.3555C104.708 74.0851 108.554 70.2384 113.825 70.2384C116.883 70.2384 119.797 71.7485 121.394 74.3846L117.522 76.608C116.793 75.2601 115.312 74.6102 113.825 74.6102C110.995 74.6102 109.154 76.5514 109.154 79.3565C109.154 82.199 110.958 84.1027 113.825 84.1027C115.327 84.1027 116.801 83.4499 117.522 82.08V82.078ZM156.415 70.6128V88.0982H152.967L146.797 79.3056V88.0982H142.326V70.6128H145.798L151.968 79.4054V70.6128H156.414H156.415ZM169.928 70.6128V74.9337H163.659V77.7811H169.804V82.103H163.659V88.0982H159.188V70.6128H169.929H169.928ZM212.093 70.6128V74.784H205.449V77.2944H212.093V81.4157H205.449V83.9011H212.218V88.0973H200.978V70.6118H212.093V70.6128ZM195.807 81.6288L199.404 88.0982H194.608L191.561 82.4534H189.963V88.0982H185.491V70.6128H192.485C195.978 70.6128 198.779 73.0886 198.779 76.6569C198.779 78.7545 197.621 80.6054 195.807 81.6278V81.6288ZM228.429 70.6128V88.0982H224.981L218.812 79.3056V88.0982H214.341V70.6128H217.813L223.983 79.4054V70.6128H228.429ZM248.812 70.6128H259.928V74.784H253.284V77.2944H259.928V81.4157H253.284V83.9011H260.053V88.0973H248.812V70.6118V70.6128ZM239.644 84.1008C241.146 84.1008 242.62 83.448 243.341 82.078L247.213 84.3264C245.616 87 242.727 88.4726 239.644 88.4726C234.356 88.4726 230.527 84.6441 230.527 79.3555C230.527 74.0851 234.373 70.2384 239.644 70.2384C242.702 70.2384 245.617 71.7485 247.213 74.3846L243.341 76.608C242.613 75.2601 241.131 74.6102 239.644 74.6102C236.814 74.6102 234.974 76.5514 234.974 79.3565C234.974 82.199 236.778 84.1027 239.644 84.1027V84.1008ZM172.127 70.6128H183.243V74.784H176.598V77.2944H183.243V81.4157H176.598V83.9011H183.367V88.0973H172.127V70.6118V70.6128ZM131.087 74.6093C128.34 74.6093 126.366 76.6166 126.366 79.3555C126.366 82.1078 128.331 84.1017 131.087 84.1017C133.843 84.1017 135.808 82.1078 135.808 79.3555C135.808 76.6166 133.834 74.6093 131.087 74.6093ZM189.963 74.7341V78.6557H192.436C193.593 78.6912 194.309 77.8214 194.309 76.7069C194.309 75.5856 193.589 74.7331 192.436 74.7331H189.963V74.7341Z" fill="#45B175"/>
<path fill-rule="evenodd" clip-rule="evenodd" d="M67.5282 25.3565V8.30984C67.5282 7.87976 67.3622 7.51016 67.0387 7.21928C66.7152 6.92744 66.3244 6.79497 65.8848 6.82953C55.2835 7.64553 46.9411 16.2942 46.9411 26.8426C46.9411 37.9306 56.158 46.919 67.5273 46.919C78.3436 46.919 87.213 38.784 88.0501 28.4448C88.0847 28.0167 87.9493 27.6356 87.6498 27.3197C87.3513 27.0039 86.9721 26.8426 86.5314 26.8426H69.0518C68.2127 26.8426 67.5282 26.1754 67.5282 25.3575V25.3565Z" fill="#45B175"/>
<path fill-rule="evenodd" clip-rule="evenodd" d="M26.4787 88.0992H1.97092C1.13188 88.0992 0.447388 87.4319 0.447388 86.614V54.1162C0.447388 53.2982 1.13188 52.631 1.97092 52.631H26.4787C36.4809 52.631 44.664 60.6115 44.664 70.3651C44.664 80.1196 36.48 88.1001 26.4787 88.1001V88.0992Z" fill="#23454F"/>
<path fill-rule="evenodd" clip-rule="evenodd" d="M85.0981 85.5004L68.5362 71.2339C67.9564 70.7347 67.0982 70.7347 66.5193 71.2339L49.9574 85.5004C49.4736 85.918 49.3132 86.5507 49.5417 87.1401C49.7702 87.7286 50.3203 88.0992 50.9664 88.0992H84.0901C84.7352 88.0992 85.2863 87.7286 85.5148 87.1401C85.7433 86.5507 85.582 85.918 85.0981 85.5004ZM68.5362 69.4963L85.0981 55.2298C85.582 54.8131 85.7433 54.1795 85.5148 53.591C85.2863 53.0026 84.7352 52.631 84.0901 52.631H50.9664C50.3212 52.631 49.7702 53.0016 49.5417 53.591C49.3132 54.1795 49.4745 54.8131 49.9584 55.2298L66.5202 69.4963C67.0991 69.9955 67.9574 69.9955 68.5372 69.4963H68.5362Z" fill="#9DCB56"/>
<path fill-rule="evenodd" clip-rule="evenodd" d="M38.4979 38.618L4.60995 9.42441C4.12515 9.00681 3.96482 8.37321 4.1933 7.78377C4.42178 7.19434 4.97283 6.82281 5.61891 6.82281H39.5078C40.3478 6.82281 41.0323 7.49097 41.0323 8.30985V37.5044C41.0323 38.1024 40.6934 38.6141 40.1347 38.8599C39.576 39.1056 38.9587 39.0144 38.4989 38.6189L38.4979 38.618ZM2.98274 15.123L36.8716 44.3175C37.3564 44.7341 37.5168 45.3687 37.2883 45.9581C37.0598 46.5475 36.5088 46.9181 35.8627 46.9181H1.97378C1.13378 46.9181 0.44931 46.2499 0.44931 45.4311V16.2375C0.44931 15.6394 0.788199 15.1278 1.34692 14.882C1.90564 14.6362 2.52386 14.7274 2.98274 15.123Z" fill="#45B175"/>
<path d="M273.284 88.0992V70.6137H274.512V88.0992H273.284Z" fill="#23454F"/>
<path d="M285.034 87.8323V86.6697L291.258 80.2761C293.082 78.3869 293.994 76.7885 293.994 75.4809C293.994 74.351 293.639 73.463 292.928 72.8169C292.218 72.1709 291.33 71.8483 290.264 71.8483C288.375 71.8483 287.027 72.7037 286.22 74.4154L285.13 73.7616C285.631 72.745 286.329 71.9654 287.225 71.424C288.121 70.8835 289.134 70.6128 290.264 70.6128C291.636 70.6128 292.819 71.0486 293.811 71.9203C294.805 72.792 295.301 73.9785 295.301 75.48C295.301 76.4448 295.023 77.3808 294.462 78.2889C293.902 79.1971 293.114 80.1619 292.105 81.1747L286.862 86.5958H295.689V87.8313H285.033L285.034 87.8323ZM312.352 85.5436C310.656 87.2467 308.59 88.0992 306.152 88.0992C303.715 88.0992 301.648 87.2476 299.953 85.5436C298.257 83.8406 297.409 81.7785 297.409 79.3565C297.409 76.9353 298.257 74.8723 299.953 73.1693C301.648 71.4662 303.715 70.6147 306.152 70.6147C308.591 70.6147 310.656 71.4662 312.352 73.1693C314.047 74.8723 314.895 76.9353 314.895 79.3565C314.895 81.7785 314.047 83.8406 312.352 85.5436ZM300.861 84.672C302.305 86.1331 304.07 86.8636 306.152 86.8636C308.235 86.8636 309.999 86.1331 311.444 84.672C312.888 83.2108 313.611 81.4387 313.611 79.3565C313.611 77.2742 312.888 75.5021 311.444 74.0409C309.999 72.5798 308.234 71.8493 306.152 71.8493C304.07 71.8493 302.305 72.5798 300.861 74.0409C299.415 75.5021 298.693 77.2742 298.693 79.3565C298.693 81.4397 299.415 83.2108 300.861 84.672ZM316.59 87.8323V86.6697L322.814 80.2761C324.638 78.3869 325.551 76.7885 325.551 75.4809C325.551 74.351 325.196 73.463 324.485 72.8169C323.775 72.1709 322.887 71.8483 321.821 71.8483C319.932 71.8483 318.584 72.7037 317.777 74.4154L316.687 73.7616C317.187 72.745 317.886 71.9654 318.782 71.424C319.678 70.8835 320.691 70.6128 321.821 70.6128C323.194 70.6128 324.376 71.0486 325.369 71.9203C326.363 72.792 326.859 73.9785 326.859 75.48C326.859 76.4448 326.581 77.3808 326.02 78.2889C325.459 79.1971 324.672 80.1619 323.663 81.1747L318.42 86.5958H327.247V87.8313H316.591L316.59 87.8323ZM335.076 77.9194C336.501 78.0653 337.676 78.5731 338.599 79.4448C339.524 80.3213 339.983 81.4828 339.983 82.9401C339.983 84.5222 339.443 85.7779 338.361 86.7062C337.279 87.6345 335.955 88.0992 334.39 88.0992C333.13 88.0992 332.016 87.8169 331.048 87.2515C330.079 86.6861 329.393 85.895 328.99 84.8784L330.055 84.2486C330.362 85.0886 330.894 85.7347 331.654 86.1868C332.413 86.639 333.325 86.8646 334.391 86.8646C335.65 86.8646 336.683 86.5094 337.49 85.799C338.298 85.0886 338.701 84.1363 338.701 82.9411C338.701 81.7468 338.294 80.7936 337.474 80.0832C336.658 79.3728 335.613 79.0176 334.334 79.0176V78.9936L334.31 79.0099H333.975L333.422 78.1699L337.708 72.0912H329.425V70.8806H339.186L339.169 72.0787L335.077 77.9194H335.076Z" fill="#23454F"/>
<path fill-rule="evenodd" clip-rule="evenodd" d="M409.428 36.3552V6.34949H400.544V45.24H422.192V36.3552H409.428Z" fill="#45B175"/>
<path fill-rule="evenodd" clip-rule="evenodd" d="M430.116 17.2023H426.071V26.0871H430.168V45.24H438.999V26.0871H448.507V34.44C448.507 40.4045 453.343 45.24 459.307 45.24H462.122V36.3562H459.307C458.25 36.3562 457.391 35.498 457.391 34.44V26.0871H462.122V17.2023H457.391V9.75463H448.99H443.574C441.047 9.75463 438.999 11.8023 438.999 14.33V17.2033H444.863H446.384C447.824 17.2033 448.99 16.0359 448.99 14.5969V9.75559V0.871765H443.574C436.141 0.871765 430.115 6.89767 430.115 14.3309V17.2042L430.116 17.2023Z" fill="#45B175"/>
<path fill-rule="evenodd" clip-rule="evenodd" d="M417.75 7.33447L426.071 17.2023H422.192V32.4768H413.307V17.2023H409.428L417.75 7.33447Z" fill="#45B175"/>
<path fill-rule="evenodd" clip-rule="evenodd" d="M415.227 68.8637C418.431 68.8637 421.027 71.4605 421.027 74.664C421.027 77.8675 418.431 80.4633 415.227 80.4633C412.024 80.4633 409.428 77.8665 409.428 74.664C409.428 71.4605 412.025 68.8637 415.227 68.8637ZM448.716 69.503V88.655H457.547V69.503H463.186V68.1734V60.6183H457.547C457.547 58.0915 459.595 56.0429 462.122 56.0429V47.1591C454.689 47.1591 448.663 53.185 448.663 60.6183H444.619H443.095C443.095 58.0915 445.143 56.0429 447.67 56.0429V47.1591C440.237 47.1591 434.211 53.185 434.211 60.6183H430.167V68.1734V69.503H434.263V88.655H443.095V69.503H444.619H448.715H448.716ZM415.227 59.9798C407.118 59.9798 400.544 66.5539 400.544 74.664C400.544 82.7731 407.118 89.3472 415.227 89.3472C423.337 89.3472 429.911 82.7731 429.911 74.664C429.911 66.5539 423.337 59.9798 415.227 59.9798Z" fill="#23454F"/>
<path d="M370.264 6.82281V88.0992" stroke="#CCCCCC" stroke-width="0.944638" stroke-miterlimit="2.61313"/>
</svg>
