<svg width="320" height="105" viewBox="0 0 320 105" fill="none" xmlns="http://www.w3.org/2000/svg">
<path fill-rule="evenodd" clip-rule="evenodd" d="M106.438 95.9287C108.072 95.9287 109.956 95.6313 110.947 94.7392V89.6355C110.006 89.9329 109.114 90.032 108.52 90.032C106.339 90.032 105.597 88.7434 105.597 87.4065V75.1659H110.899V69.864H105.597V63.2734L98.9071 65.1836V69.864H95.2395V75.1659H98.9071V88.4969C98.9071 93.7988 102.079 95.9287 106.438 95.9287ZM189.377 78.7719C187.662 73.4084 182.636 69.5211 176.705 69.5211C169.359 69.5211 163.403 75.4766 163.403 82.8227C163.403 90.1687 169.359 96.1242 176.705 96.1242C182.639 96.1242 187.665 92.2396 189.38 86.8734H183.199C181.846 89.0354 179.446 90.4741 176.705 90.4741C172.477 90.4741 169.051 87.0475 169.051 82.82C169.051 78.5924 172.477 75.1659 176.705 75.1659C179.443 75.1659 181.846 76.6045 183.196 78.7665H189.377V78.7719ZM258.516 85.4776H271.338H272.184C272.359 84.6203 272.45 83.7335 272.45 82.8253C272.45 75.4793 266.494 69.5237 259.148 69.5237C251.802 69.5237 245.847 75.4793 245.847 82.8253C245.847 90.1714 251.802 96.1269 259.148 96.1269C264.463 96.1269 269.053 93.0085 271.183 88.5023H264.281C262.923 89.7293 261.123 90.4794 259.148 90.4794C255.856 90.4794 253.048 88.3978 251.968 85.4803H258.516V85.4776ZM266.475 80.6231H251.813C252.759 77.4699 255.684 75.1739 259.145 75.1739C262.607 75.1712 265.53 77.4699 266.475 80.6231ZM230.083 85.4776H242.905H243.749C243.923 84.6203 244.014 83.7335 244.014 82.8253C244.014 75.4793 238.058 69.5237 230.712 69.5237C223.366 69.5237 217.411 75.4793 217.411 82.8253C217.411 90.1714 223.366 96.1269 230.712 96.1269C236.028 96.1269 240.617 93.0085 242.747 88.5023H235.846C234.487 89.7293 232.687 90.4794 230.712 90.4794C227.42 90.4794 224.612 88.3978 223.532 85.4803H230.083V85.4776ZM238.042 80.6231H223.38C224.325 77.4699 227.251 75.1739 230.712 75.1739C234.171 75.1712 237.097 77.4699 238.042 80.6231ZM114.963 95.6313H121.604V84.3819C121.604 79.2273 124.725 75.7606 129.73 75.7606C130.325 75.7606 130.82 75.8115 131.415 75.9106V69.5666C130.82 69.4192 130.276 69.3683 129.682 69.3683C125.023 69.3683 122.496 72.5886 121.604 76.5536V69.864H114.963V95.6313ZM145.588 96.1269C150.196 96.1269 153.169 93.6006 153.812 92.1619H153.96V95.6313H160.598V69.864H153.96V73.3334H153.812C153.169 71.8974 150.196 69.3683 145.588 69.3683C139.592 69.3683 133.199 73.829 133.199 82.7476C133.199 91.669 139.592 96.1269 145.588 96.1269ZM139.739 82.7476C139.739 77.9414 143.208 75.3159 146.924 75.3159C150.64 75.3159 154.11 77.8932 154.11 82.7476C154.11 87.6048 150.64 90.1821 146.924 90.1821C143.208 90.1821 139.739 87.5539 139.739 82.7476ZM192.911 95.6313V62.3599L199.552 60.4497V80.816L209.216 69.864H217.143L206.885 81.2125L218.282 95.6313H210.847L202.77 85.7214L199.549 89.2899V95.634H192.911V95.6313ZM284.634 95.9287C286.268 95.9287 288.152 95.6313 289.143 94.7392V89.6355C288.203 89.9329 287.311 90.032 286.716 90.032C284.535 90.032 283.793 88.7434 283.793 87.4065V75.1659H289.095V69.864H283.793V63.2734L277.103 65.1836V69.864H273.436V75.1659H277.103V88.4969C277.103 93.7988 280.273 95.9287 284.634 95.9287Z" fill="#101828"/>
<path fill-rule="evenodd" clip-rule="evenodd" d="M56.4519 55.4585C61.4725 55.4585 66.1367 56.9722 70.0187 59.5682L57.0975 68.677L50.1507 61.5212H42.6279L56.4519 75.648L74.2222 63.118C75.8859 64.8781 77.2924 66.8874 78.3801 69.0816H75.4921L57.0975 82.051L50.1507 74.8925H42.6279L56.4519 89.0192L79.7813 72.5697C80.51 74.8871 80.9038 77.3519 80.9038 79.9104C80.9038 80.7704 80.8582 81.617 80.7725 82.4555H75.4921L57.1002 95.4249L50.1534 88.2664H42.6279L56.4519 102.393L80.2287 85.6249C77.6541 96.3706 67.9853 104.36 56.4519 104.36C42.9467 104.362 32 93.4129 32 79.9104C32 66.4079 42.9467 55.4585 56.4519 55.4585Z" fill="url(#paint0_linear_11_8)"/>
<path d="M87.136 25.288C86 25.288 84.96 25.08 84.016 24.664C83.072 24.232 82.272 23.648 81.616 22.912C80.96 22.176 80.488 21.352 80.2 20.44L82.24 19.6C82.672 20.752 83.312 21.64 84.16 22.264C85.024 22.872 86.032 23.176 87.184 23.176C87.888 23.176 88.504 23.064 89.032 22.84C89.56 22.616 89.968 22.304 90.256 21.904C90.56 21.488 90.712 21.008 90.712 20.464C90.712 19.712 90.496 19.12 90.064 18.688C89.648 18.24 89.032 17.904 88.216 17.68L84.928 16.672C83.632 16.272 82.64 15.64 81.952 14.776C81.264 13.912 80.92 12.92 80.92 11.8C80.92 10.824 81.152 9.968 81.616 9.232C82.096 8.48 82.752 7.896 83.584 7.48C84.432 7.048 85.392 6.832 86.464 6.832C87.536 6.832 88.504 7.024 89.368 7.408C90.248 7.792 90.992 8.312 91.6 8.968C92.208 9.608 92.656 10.344 92.944 11.176L90.928 12.016C90.544 11.008 89.968 10.248 89.2 9.736C88.432 9.208 87.528 8.944 86.488 8.944C85.848 8.944 85.28 9.056 84.784 9.28C84.304 9.488 83.928 9.8 83.656 10.216C83.4 10.616 83.272 11.096 83.272 11.656C83.272 12.312 83.48 12.896 83.896 13.408C84.312 13.92 84.944 14.312 85.792 14.584L88.792 15.472C90.2 15.904 91.264 16.52 91.984 17.32C92.704 18.12 93.064 19.112 93.064 20.296C93.064 21.272 92.808 22.136 92.296 22.888C91.8 23.64 91.104 24.232 90.208 24.664C89.328 25.08 88.304 25.288 87.136 25.288ZM96.2436 29.8V12.064H98.4276V14.848L98.1396 14.296C98.6196 13.528 99.2756 12.92 100.108 12.472C100.94 12.008 101.892 11.776 102.964 11.776C104.18 11.776 105.268 12.072 106.228 12.664C107.204 13.256 107.972 14.064 108.532 15.088C109.092 16.096 109.372 17.248 109.372 18.544C109.372 19.808 109.092 20.952 108.532 21.976C107.972 23 107.204 23.808 106.228 24.4C105.268 24.992 104.172 25.288 102.94 25.288C101.9 25.288 100.948 25.056 100.084 24.592C99.2356 24.128 98.5796 23.472 98.1156 22.624L98.4756 22.24V29.8H96.2436ZM102.772 23.128C103.588 23.128 104.316 22.928 104.956 22.528C105.596 22.128 106.092 21.584 106.444 20.896C106.812 20.192 106.996 19.408 106.996 18.544C106.996 17.648 106.812 16.864 106.444 16.192C106.092 15.504 105.596 14.96 104.956 14.56C104.316 14.144 103.588 13.936 102.772 13.936C101.956 13.936 101.22 14.136 100.564 14.536C99.9236 14.936 99.4116 15.488 99.0276 16.192C98.6596 16.88 98.4756 17.664 98.4756 18.544C98.4756 19.408 98.6596 20.192 99.0276 20.896C99.4116 21.584 99.9236 22.128 100.564 22.528C101.22 22.928 101.956 23.128 102.772 23.128ZM118.442 25.288C117.194 25.288 116.066 25 115.058 24.424C114.05 23.832 113.25 23.024 112.658 22C112.066 20.976 111.77 19.816 111.77 18.52C111.77 17.224 112.058 16.072 112.634 15.064C113.226 14.056 114.026 13.256 115.034 12.664C116.042 12.072 117.178 11.776 118.442 11.776C119.69 11.776 120.818 12.072 121.826 12.664C122.834 13.24 123.626 14.032 124.202 15.04C124.794 16.048 125.09 17.208 125.09 18.52C125.09 19.832 124.786 21 124.178 22.024C123.57 23.032 122.762 23.832 121.754 24.424C120.762 25 119.658 25.288 118.442 25.288ZM118.442 23.128C119.242 23.128 119.962 22.928 120.602 22.528C121.258 22.128 121.77 21.576 122.138 20.872C122.522 20.168 122.714 19.384 122.714 18.52C122.714 17.64 122.522 16.864 122.138 16.192C121.77 15.504 121.258 14.96 120.602 14.56C119.962 14.144 119.242 13.936 118.442 13.936C117.626 13.936 116.89 14.144 116.234 14.56C115.594 14.96 115.082 15.504 114.698 16.192C114.314 16.864 114.122 17.64 114.122 18.52C114.122 19.384 114.314 20.168 114.698 20.872C115.082 21.576 115.594 22.128 116.234 22.528C116.89 22.928 117.626 23.128 118.442 23.128ZM128.001 25V12.064H130.185V14.584L129.825 14.368C130.145 13.552 130.657 12.92 131.361 12.472C132.081 12.008 132.921 11.776 133.881 11.776C134.809 11.776 135.633 11.984 136.353 12.4C137.089 12.816 137.665 13.392 138.081 14.128C138.513 14.864 138.729 15.696 138.729 16.624V25H136.473V17.344C136.473 16.624 136.345 16.016 136.089 15.52C135.833 15.024 135.465 14.64 134.985 14.368C134.521 14.08 133.985 13.936 133.377 13.936C132.769 13.936 132.225 14.08 131.745 14.368C131.281 14.64 130.913 15.032 130.641 15.544C130.369 16.04 130.233 16.64 130.233 17.344V25H128.001ZM146.555 25.288C145.259 25.288 144.131 24.968 143.171 24.328C142.211 23.688 141.531 22.824 141.131 21.736L142.907 20.872C143.275 21.64 143.779 22.248 144.419 22.696C145.059 23.144 145.771 23.368 146.555 23.368C147.259 23.368 147.843 23.2 148.307 22.864C148.771 22.528 149.003 22.088 149.003 21.544C149.003 21.16 148.891 20.856 148.667 20.632C148.459 20.392 148.203 20.208 147.899 20.08C147.595 19.936 147.315 19.832 147.059 19.768L145.115 19.216C143.947 18.88 143.091 18.4 142.547 17.776C142.019 17.152 141.755 16.424 141.755 15.592C141.755 14.824 141.947 14.16 142.331 13.6C142.731 13.024 143.267 12.576 143.939 12.256C144.627 11.936 145.395 11.776 146.243 11.776C147.379 11.776 148.395 12.064 149.291 12.64C150.203 13.216 150.851 14.024 151.235 15.064L149.411 15.904C149.123 15.232 148.691 14.704 148.115 14.32C147.539 13.92 146.891 13.72 146.171 13.72C145.515 13.72 144.995 13.888 144.611 14.224C144.227 14.544 144.035 14.952 144.035 15.448C144.035 15.816 144.131 16.12 144.323 16.36C144.515 16.584 144.747 16.76 145.019 16.888C145.291 17 145.555 17.096 145.811 17.176L147.923 17.8C148.979 18.104 149.795 18.576 150.371 19.216C150.963 19.856 151.259 20.624 151.259 21.52C151.259 22.24 151.059 22.888 150.659 23.464C150.259 24.04 149.707 24.488 149.003 24.808C148.299 25.128 147.483 25.288 146.555 25.288ZM160.325 25.288C159.077 25.288 157.949 25 156.941 24.424C155.933 23.832 155.133 23.024 154.541 22C153.949 20.976 153.653 19.816 153.653 18.52C153.653 17.224 153.941 16.072 154.517 15.064C155.109 14.056 155.909 13.256 156.917 12.664C157.925 12.072 159.061 11.776 160.325 11.776C161.573 11.776 162.701 12.072 163.709 12.664C164.717 13.24 165.509 14.032 166.085 15.04C166.677 16.048 166.973 17.208 166.973 18.52C166.973 19.832 166.669 21 166.061 22.024C165.453 23.032 164.645 23.832 163.637 24.424C162.645 25 161.541 25.288 160.325 25.288ZM160.325 23.128C161.125 23.128 161.845 22.928 162.485 22.528C163.141 22.128 163.653 21.576 164.021 20.872C164.405 20.168 164.597 19.384 164.597 18.52C164.597 17.64 164.405 16.864 164.021 16.192C163.653 15.504 163.141 14.96 162.485 14.56C161.845 14.144 161.125 13.936 160.325 13.936C159.509 13.936 158.773 14.144 158.117 14.56C157.477 14.96 156.965 15.504 156.581 16.192C156.197 16.864 156.005 17.64 156.005 18.52C156.005 19.384 156.197 20.168 156.581 20.872C156.965 21.576 157.477 22.128 158.117 22.528C158.773 22.928 159.509 23.128 160.325 23.128ZM169.884 25V12.064H172.068V14.44L171.828 14.104C172.132 13.368 172.596 12.824 173.22 12.472C173.844 12.104 174.604 11.92 175.5 11.92H176.292V14.032H175.164C174.252 14.032 173.516 14.32 172.956 14.896C172.396 15.456 172.116 16.256 172.116 17.296V25H169.884ZM184.227 25.288C182.979 25.288 181.867 24.992 180.891 24.4C179.915 23.808 179.147 23 178.587 21.976C178.027 20.936 177.747 19.776 177.747 18.496C177.747 17.2 178.019 16.048 178.563 15.04C179.123 14.032 179.875 13.24 180.819 12.664C181.779 12.072 182.851 11.776 184.035 11.776C184.995 11.776 185.843 11.952 186.579 12.304C187.331 12.64 187.963 13.104 188.475 13.696C189.003 14.272 189.403 14.936 189.675 15.688C189.963 16.424 190.107 17.192 190.107 17.992C190.107 18.168 190.091 18.368 190.059 18.592C190.043 18.8 190.019 19 189.987 19.192H179.379V17.272H188.691L187.635 18.136C187.779 17.304 187.699 16.56 187.395 15.904C187.091 15.248 186.643 14.728 186.051 14.344C185.459 13.96 184.787 13.768 184.035 13.768C183.283 13.768 182.595 13.96 181.971 14.344C181.347 14.728 180.859 15.28 180.507 16C180.171 16.704 180.035 17.544 180.099 18.52C180.035 19.464 180.179 20.296 180.531 21.016C180.899 21.72 181.411 22.272 182.067 22.672C182.739 23.056 183.467 23.248 184.251 23.248C185.115 23.248 185.843 23.048 186.435 22.648C187.027 22.248 187.507 21.736 187.875 21.112L189.747 22.072C189.491 22.664 189.091 23.208 188.547 23.704C188.019 24.184 187.387 24.568 186.651 24.856C185.931 25.144 185.123 25.288 184.227 25.288ZM198.897 25.288C197.681 25.288 196.585 24.992 195.609 24.4C194.649 23.808 193.889 23 193.329 21.976C192.769 20.952 192.489 19.808 192.489 18.544C192.489 17.248 192.769 16.096 193.329 15.088C193.889 14.064 194.649 13.256 195.609 12.664C196.585 12.072 197.681 11.776 198.897 11.776C199.969 11.776 200.921 12.008 201.753 12.472C202.585 12.92 203.241 13.528 203.721 14.296L203.361 14.848V6.832H205.617V25H203.433V22.24L203.721 22.624C203.273 23.472 202.617 24.128 201.753 24.592C200.905 25.056 199.953 25.288 198.897 25.288ZM199.089 23.128C199.905 23.128 200.633 22.928 201.273 22.528C201.913 22.128 202.417 21.584 202.785 20.896C203.169 20.192 203.361 19.408 203.361 18.544C203.361 17.664 203.169 16.88 202.785 16.192C202.417 15.488 201.913 14.936 201.273 14.536C200.633 14.136 199.905 13.936 199.089 13.936C198.289 13.936 197.561 14.144 196.905 14.56C196.265 14.96 195.761 15.504 195.393 16.192C195.025 16.864 194.841 17.648 194.841 18.544C194.841 19.408 195.025 20.192 195.393 20.896C195.761 21.584 196.265 22.128 196.905 22.528C197.545 22.928 198.273 23.128 199.089 23.128ZM219.916 25.288C218.876 25.288 217.924 25.056 217.06 24.592C216.212 24.128 215.556 23.472 215.092 22.624L215.404 22.24V25H213.22V6.832H215.452V14.848L215.116 14.296C215.596 13.528 216.252 12.92 217.084 12.472C217.916 12.008 218.868 11.776 219.94 11.776C221.156 11.776 222.244 12.072 223.204 12.664C224.18 13.256 224.948 14.064 225.508 15.088C226.068 16.096 226.348 17.248 226.348 18.544C226.348 19.808 226.068 20.952 225.508 21.976C224.948 23 224.18 23.808 223.204 24.4C222.244 24.992 221.148 25.288 219.916 25.288ZM219.748 23.128C220.564 23.128 221.292 22.928 221.932 22.528C222.572 22.128 223.068 21.584 223.42 20.896C223.788 20.192 223.972 19.408 223.972 18.544C223.972 17.648 223.788 16.864 223.42 16.192C223.068 15.504 222.572 14.96 221.932 14.56C221.292 14.144 220.564 13.936 219.748 13.936C218.932 13.936 218.196 14.136 217.54 14.536C216.9 14.936 216.388 15.488 216.004 16.192C215.636 16.88 215.452 17.664 215.452 18.544C215.452 19.408 215.636 20.192 216.004 20.896C216.388 21.584 216.9 22.128 217.54 22.528C218.196 22.928 218.932 23.128 219.748 23.128ZM229.737 30.28C229.449 30.28 229.161 30.256 228.873 30.208C228.585 30.176 228.313 30.104 228.057 29.992V28C228.233 28.016 228.449 28.048 228.705 28.096C228.977 28.144 229.241 28.168 229.497 28.168C230.249 28.168 230.817 28 231.201 27.664C231.601 27.328 231.977 26.76 232.329 25.96L233.145 24.016L233.097 25.96L227.577 12.064H230.001L234.297 23.104H233.577L237.849 12.064H240.321L234.489 26.536C234.217 27.224 233.865 27.856 233.433 28.432C233.017 29.008 232.505 29.456 231.897 29.776C231.289 30.112 230.569 30.28 229.737 30.28Z" fill="black"/>
<line x1="0.998433" y1="42.5" x2="319.998" y2="41.5" stroke="#777"/>
<defs>
<linearGradient id="paint0_linear_11_8" x1="43.6332" y1="91.5461" x2="69.2635" y2="68.2777" gradientUnits="userSpaceOnUse">
<stop stop-color="#F04E23"/>
<stop offset="1" stop-color="#FCAF17"/>
</linearGradient>
</defs>
</svg>
